<mxfile host="app.diagrams.net" modified="2022-07-18T03:43:38.847Z" agent="5.0 (Macintosh; Intel Mac OS X 10_15_7) AppleWebKit/537.36 (KHTML, like Gecko) Chrome/103.0.0.0 Safari/537.36" etag="xVUaT7uNzJdCJy724JsR" version="20.1.1" type="github">
  <diagram id="KvTSBWndc6eD5BLYHtSI" name="第 1 页">
    <mxGraphModel dx="1135" dy="714" grid="1" gridSize="10" guides="1" tooltips="1" connect="1" arrows="1" fold="1" page="1" pageScale="1" pageWidth="827" pageHeight="1169" math="0" shadow="1">
      <root>
        <mxCell id="0" />
        <mxCell id="1" parent="0" />
        <mxCell id="DO_eTJAPRYyBR4aNDUrh-20" value="" style="rounded=0;whiteSpace=wrap;html=1;fillColor=none;" parent="1" vertex="1">
          <mxGeometry x="10" y="50" width="650" height="440" as="geometry" />
        </mxCell>
        <mxCell id="DO_eTJAPRYyBR4aNDUrh-1" value="凯亚云平台" style="rounded=0;whiteSpace=wrap;html=1;fillColor=#f5f5f5;strokeColor=#666666;fontColor=#333333;" parent="1" vertex="1">
          <mxGeometry x="170" y="400" width="470" height="70" as="geometry" />
        </mxCell>
        <mxCell id="DO_eTJAPRYyBR4aNDUrh-2" value="" style="rounded=0;whiteSpace=wrap;html=1;fillColor=#f8cecc;strokeColor=#b85450;" parent="1" vertex="1">
          <mxGeometry x="170" y="320" width="470" height="60" as="geometry" />
        </mxCell>
        <mxCell id="DO_eTJAPRYyBR4aNDUrh-3" value="MySQL" style="rounded=0;whiteSpace=wrap;html=1;" parent="1" vertex="1">
          <mxGeometry x="230" y="330" width="110" height="40" as="geometry" />
        </mxCell>
        <mxCell id="DO_eTJAPRYyBR4aNDUrh-4" value="Redis" style="rounded=0;whiteSpace=wrap;html=1;" parent="1" vertex="1">
          <mxGeometry x="360" y="330" width="110" height="40" as="geometry" />
        </mxCell>
        <mxCell id="DO_eTJAPRYyBR4aNDUrh-5" value="" style="rounded=0;whiteSpace=wrap;html=1;fillColor=#d5e8d4;strokeColor=#82b366;" parent="1" vertex="1">
          <mxGeometry x="170" y="70" width="470" height="60" as="geometry" />
        </mxCell>
        <mxCell id="DO_eTJAPRYyBR4aNDUrh-6" value="ReactJS" style="rounded=0;whiteSpace=wrap;html=1;" parent="1" vertex="1">
          <mxGeometry x="200" y="80" width="110" height="40" as="geometry" />
        </mxCell>
        <mxCell id="DO_eTJAPRYyBR4aNDUrh-7" value="APP" style="rounded=0;whiteSpace=wrap;html=1;" parent="1" vertex="1">
          <mxGeometry x="340" y="80" width="110" height="40" as="geometry" />
        </mxCell>
        <mxCell id="DO_eTJAPRYyBR4aNDUrh-8" value="API" style="rounded=0;whiteSpace=wrap;html=1;" parent="1" vertex="1">
          <mxGeometry x="480" y="80" width="110" height="40" as="geometry" />
        </mxCell>
        <mxCell id="DO_eTJAPRYyBR4aNDUrh-9" value="" style="rounded=0;whiteSpace=wrap;html=1;fillColor=#dae8fc;strokeColor=#6c8ebf;" parent="1" vertex="1">
          <mxGeometry x="170" y="150" width="470" height="150" as="geometry" />
        </mxCell>
        <mxCell id="DO_eTJAPRYyBR4aNDUrh-10" value="SpringBoot" style="rounded=0;whiteSpace=wrap;html=1;" parent="1" vertex="1">
          <mxGeometry x="200" y="170" width="110" height="40" as="geometry" />
        </mxCell>
        <mxCell id="DO_eTJAPRYyBR4aNDUrh-11" value="SpringCore" style="rounded=0;whiteSpace=wrap;html=1;" parent="1" vertex="1">
          <mxGeometry x="340" y="170" width="110" height="40" as="geometry" />
        </mxCell>
        <mxCell id="DO_eTJAPRYyBR4aNDUrh-12" value="Mybatis" style="rounded=0;whiteSpace=wrap;html=1;" parent="1" vertex="1">
          <mxGeometry x="480" y="170" width="110" height="40" as="geometry" />
        </mxCell>
        <mxCell id="DO_eTJAPRYyBR4aNDUrh-13" value="JetCache" style="rounded=0;whiteSpace=wrap;html=1;" parent="1" vertex="1">
          <mxGeometry x="200" y="230" width="110" height="40" as="geometry" />
        </mxCell>
        <mxCell id="DO_eTJAPRYyBR4aNDUrh-14" value="OAuth2" style="rounded=0;whiteSpace=wrap;html=1;" parent="1" vertex="1">
          <mxGeometry x="340" y="230" width="110" height="40" as="geometry" />
        </mxCell>
        <mxCell id="DO_eTJAPRYyBR4aNDUrh-15" value="MinIO" style="rounded=0;whiteSpace=wrap;html=1;" parent="1" vertex="1">
          <mxGeometry x="490" y="330" width="110" height="40" as="geometry" />
        </mxCell>
        <mxCell id="DO_eTJAPRYyBR4aNDUrh-16" value="表现层" style="rounded=0;whiteSpace=wrap;html=1;fillColor=#d5e8d4;strokeColor=#82b366;" parent="1" vertex="1">
          <mxGeometry x="30" y="70" width="120" height="60" as="geometry" />
        </mxCell>
        <mxCell id="DO_eTJAPRYyBR4aNDUrh-17" value="服务层" style="rounded=0;whiteSpace=wrap;html=1;fillColor=#dae8fc;strokeColor=#6c8ebf;" parent="1" vertex="1">
          <mxGeometry x="30" y="150" width="120" height="150" as="geometry" />
        </mxCell>
        <mxCell id="DO_eTJAPRYyBR4aNDUrh-18" value="存储层" style="rounded=0;whiteSpace=wrap;html=1;fillColor=#f8cecc;strokeColor=#b85450;" parent="1" vertex="1">
          <mxGeometry x="30" y="320" width="120" height="60" as="geometry" />
        </mxCell>
        <mxCell id="DO_eTJAPRYyBR4aNDUrh-19" value="基础设施层" style="rounded=0;whiteSpace=wrap;html=1;fillColor=#f5f5f5;strokeColor=#666666;fontColor=#333333;" parent="1" vertex="1">
          <mxGeometry x="30" y="400" width="120" height="70" as="geometry" />
        </mxCell>
        <mxCell id="DO_eTJAPRYyBR4aNDUrh-21" value="Quartz" style="rounded=0;whiteSpace=wrap;html=1;" parent="1" vertex="1">
          <mxGeometry x="480" y="230" width="110" height="40" as="geometry" />
        </mxCell>
      </root>
    </mxGraphModel>
  </diagram>
</mxfile>
